<svg xmlns="http://www.w3.org/2000/svg" width="900" height="300" viewBox="0 0 900 300"><rect width="900" height="300" fill="#271534"/><circle cx="720" cy="62" r="34" fill="#f2a65a" opacity=".72"/><path d="M0 190L120 96l90 70 105-115 110 129 110-88 120 101 110-70 135 78v99H0z" fill="#8d3c68"/><path d="M0 238l130-58 90 42 160-52 130 54 130-31 120 38 140-39v108H0z" fill="#0a0f13"/><g fill="#f2a65a" opacity=".35"><rect x="80" y="62" width="8" height="8"/><rect x="250" y="95" width="6" height="6"/><rect x="485" y="52" width="7" height="7"/><rect x="820" y="112" width="5" height="5"/></g></svg>